<svg enable-background="new 0 0 200 200" viewBox="0 0 200 200" xmlns="http://www.w3.org/2000/svg"><path d="m190 158.5c0 17.4-14.1 31.5-31.5 31.5h-117c-17.4 0-31.5-14.1-31.5-31.5v-117c0-17.4 14.1-31.5 31.5-31.5h117c17.4 0 31.5 14.1 31.5 31.5z" fill="none" stroke="#fff" stroke-width="4"/><path d="m190 158.5c0 17.4-14.1 31.5-31.5 31.5h-117c-17.4 0-31.5-14.1-31.5-31.5v-117c0-17.4 14.1-31.5 31.5-31.5h117c17.4 0 31.5 14.1 31.5 31.5z" fill="#0166ff"/><g fill="#fff"><path d="m89 55h22v90h-22z"/><path d="m55 89h90v22h-90z"/></g></svg>
